<svg viewBox="0 0 100 100" xmlns="http://www.w3.org/2000/svg">
  <defs>
    <radialGradient id="blobGradient" cx="40%" cy="40%" r="60%">
      <stop offset="0%" style="stop-color:#ff6b6b;stop-opacity:1" />
      <stop offset="100%" style="stop-color:#ee5a52;stop-opacity:1" />
    </radialGradient>
  </defs>
  
  <!-- Main blob shape -->
  <path d="M50 15C35 15 20 25 15 40C10 55 20 70 35 75C50 80 65 75 75 60C85 45 75 30 65 25C55 20 50 15 50 15Z" 
        fill="url(#blobGradient)" 
        stroke="#d63031" 
        stroke-width="2"/>
  
  <!-- Eyes -->
  <circle cx="35" cy="35" r="3" fill="#2d3436"/>
  <circle cx="55" cy="35" r="3" fill="#2d3436"/>
  
  <!-- Highlight in eyes -->
  <circle cx="36" cy="34" r="1" fill="#ffffff"/>
  <circle cx="56" cy="34" r="1" fill="#ffffff"/>
  
  <!-- Mouth -->
  <path d="M40 50C40 50 45 55 50 50C55 45 60 50 60 50" 
        stroke="#2d3436" 
        stroke-width="2" 
        fill="none" 
        stroke-linecap="round"/>
</svg> 